External Loads File
version=1
nRows=69
nColumns=13
Range=5.000000e-03-10 seconds
endheader
time 	forceRightX 	forceRightY 	forceRightZ 	pointRightX 	pointRightY 	pointRightZ 	forceLeftX 	forceLeftY 	forceLeftZ 	pointLeftX 	pointLeftY 	pointLeftZ 		
5.005000 -16.549887 224.166675 -0.000000 0.417892 0.432701 -0.131143 155.410899 173.843334 -0.000000 0.197826 0.180660 -0.377209
5.010000 -9.067202 230.621457 -0.000000 0.423604 0.427242 -0.130748 134.555967 124.673741 -0.000000 0.191255 0.187353 -0.377372
5.015000 -0.790561 240.264320 -0.000000 0.428704 0.421178 -0.130174 116.996190 82.245170 -0.000000 0.185216 0.194433 -0.377715
5.020000 8.228633 254.022095 -0.000000 0.433060 0.414498 -0.129582 102.940089 46.122287 -0.000000 0.179618 0.201904 -0.378126
5.025000 17.820355 272.691481 -0.000000 0.436774 0.407401 -0.128879 92.352466 15.814169 -0.000000 0.174480 0.209771 -0.378355
5.030000 27.644433 296.860261 -0.000000 0.439878 0.399854 -0.128524 84.979682 -9.222097 -0.000000 0.169863 0.217892 -0.378494
5.035000 37.279237 326.819024 -0.000000 0.442366 0.391915 -0.128315 80.410830 -29.554747 -0.000000 0.165760 0.226383 -0.378620
5.040000 46.460520 362.440219 -0.000000 0.444481 0.383544 -0.128631 78.118529 -45.769319 -0.000000 0.162053 0.235390 -0.378088
5.045000 54.092797 403.294815 -0.000000 0.446212 0.374575 -0.128733 77.639157 -58.204668 -0.000000 0.158899 0.244417 -0.378187
5.050000 59.845949 448.551054 -0.000000 0.447568 0.365135 -0.128941 78.454682 -67.291967 -0.000000 0.156347 0.253813 -0.378338
5.055000 63.536660 497.174661 -0.000000 0.448575 0.355297 -0.129097 80.138940 -73.421183 -0.000000 0.154313 0.263569 -0.378501
5.060000 64.483075 548.139288 -0.000000 0.449276 0.345116 -0.129155 82.527860 -76.919958 -0.000000 0.152941 0.273251 -0.378572
5.065000 63.432306 600.325657 -0.000000 0.449629 0.334732 -0.129348 85.405806 -78.411807 -0.000000 0.152215 0.283281 -0.378700
5.070000 60.407171 652.924791 -0.000000 0.449623 0.324176 -0.129473 88.716454 -78.488678 -0.000000 0.152054 0.293405 -0.378805
5.075000 55.226387 705.411868 -0.000000 0.448550 0.313608 -0.130214 92.344235 -77.747916 -0.000000 0.152520 0.303474 -0.378758
5.080000 50.325455 757.337095 -0.000000 0.447433 0.302771 -0.130744 95.748433 -77.034659 -0.000000 0.153686 0.313815 -0.378883
5.085000 45.386200 808.677863 -0.000000 0.445907 0.291904 -0.131301 98.589668 -76.652129 -0.000000 0.155484 0.324124 -0.378879
5.090000 41.420876 859.366060 -0.000000 0.443714 0.280941 -0.131438 100.339792 -76.880838 -0.000000 0.157941 0.334285 -0.378756
5.095000 39.514793 909.359560 -0.000000 0.440854 0.270107 -0.131823 100.524374 -77.818035 -0.000000 0.161122 0.344477 -0.378726
5.100000 40.461285 958.653324 -0.000000 0.437319 0.259270 -0.131882 98.826799 -79.381940 -0.000000 0.164908 0.354506 -0.378480
5.105000 44.484054 1007.243586 -0.000000 0.433218 0.248573 -0.131943 95.143666 -81.345250 -0.000000 0.169320 0.364344 -0.378175
5.110000 51.053212 1055.106951 -0.000000 0.428710 0.238134 -0.132018 89.595936 -83.390216 -0.000000 0.174368 0.373814 -0.377826
5.115000 60.964936 1102.098880 -0.000000 0.423560 0.228111 -0.132074 82.335278 -85.374789 -0.000000 0.179982 0.383081 -0.377476
5.120000 75.592562 1147.907717 -0.000000 0.417931 0.218210 -0.132241 73.553643 -87.277949 -0.000000 0.186150 0.392236 -0.377087
5.125000 92.008541 1192.311068 -0.000000 0.411829 0.208856 -0.132369 63.784435 -88.895461 -0.000000 0.192865 0.400682 -0.376687
5.130000 112.541643 1234.512959 -0.000000 0.405285 0.199924 -0.132664 53.121225 -90.426614 -0.000000 0.200068 0.408988 -0.376392
5.135000 137.048769 1273.534050 -0.000000 0.398042 0.191532 -0.132731 41.777825 -91.894599 -0.000000 0.207723 0.416876 -0.376001
5.140000 164.040083 1308.204611 -0.000000 0.390664 0.183681 -0.133253 29.985300 -93.246069 -0.000000 0.215810 0.424368 -0.375814
5.145000 195.291770 1336.696077 -0.000000 0.382824 0.176052 -0.133807 17.665432 -94.433025 -0.000000 0.224306 0.431461 -0.375512
5.150000 228.746890 1357.488629 -0.000000 0.374693 0.169066 -0.134310 4.959287 -95.211883 -0.000000 0.233212 0.438097 -0.375229
5.155000 262.307743 1369.158644 -0.000000 0.366548 0.162616 -0.134871 -7.986337 -95.315039 -0.000000 0.242391 0.444193 -0.374919
5.160000 298.125836 1369.585863 -0.000000 0.357728 0.156728 -0.135334 -21.256722 -94.421044 -0.000000 0.251896 0.449828 -0.374665
5.165000 331.486873 1358.251948 -0.000000 0.348808 0.151659 -0.135883 -34.406280 -92.278095 -0.000000 0.261549 0.454835 -0.374271
5.170000 362.309578 1334.169746 -0.000000 0.339710 0.147016 -0.136282 -47.317671 -88.688898 -0.000000 0.271410 0.459219 -0.373968
5.175000 389.291179 1297.115774 -0.000000 0.330457 0.142965 -0.136621 -59.835946 -83.604589 -0.000000 0.281522 0.463109 -0.373535
5.180000 410.946410 1247.480471 -0.000000 0.321063 0.139625 -0.136787 -71.859059 -77.167404 -0.000000 0.291881 0.466183 -0.373191
5.185000 424.844935 1186.575683 -0.000000 0.311736 0.136975 -0.137072 -83.313969 -69.774292 -0.000000 0.302224 0.468583 -0.372841
5.190000 431.495240 1115.328131 -0.000000 0.302419 0.134747 -0.137245 -94.388801 -61.786913 -0.000000 0.312758 0.470473 -0.372598
5.195000 428.208194 1036.449732 -0.000000 0.293688 0.133367 -0.136984 -105.125048 -53.900682 -0.000000 0.323244 0.471752 -0.372644
5.200000 419.152909 950.378092 -0.000000 0.284210 0.132518 -0.137915 -115.893391 -46.181308 -0.000000 0.333528 0.472387 -0.372084
5.205000 402.084279 860.412889 -0.000000 0.275312 0.132144 -0.138146 -126.610030 -39.254069 -0.000000 0.343944 0.472515 -0.371847
5.210000 379.391951 767.964698 -0.000000 0.266244 0.132445 -0.138828 -137.285858 -33.135467 -0.000000 0.354136 0.472150 -0.371522
5.215000 351.498964 675.229510 -0.000000 0.257626 0.133364 -0.138845 -147.728455 -27.987522 -0.000000 0.364180 0.471001 -0.371297
5.220000 320.255316 583.489287 -0.000000 0.249157 0.134912 -0.138785 -157.732746 -23.613827 -0.000000 0.374096 0.469671 -0.370940
5.225000 287.274326 493.844279 -0.000000 0.240677 0.137021 -0.139035 -167.025587 -19.677060 -0.000000 0.383779 0.467528 -0.370552
5.230000 253.050175 407.779921 -0.000000 0.232465 0.139707 -0.139409 -175.272857 -16.047800 -0.000000 0.393142 0.464704 -0.370134
5.235000 218.422145 326.395106 -0.000000 0.224586 0.142934 -0.139664 -182.191142 -12.446094 -0.000000 0.402194 0.461264 -0.369726
5.240000 184.020203 250.741226 -0.000000 0.217190 0.146803 -0.139722 -187.588694 -8.623502 -0.000000 0.410764 0.457201 -0.369346
5.245000 150.635111 181.610483 -0.000000 0.210185 0.151198 -0.139741 -191.463589 -4.178572 -0.000000 0.418827 0.452630 -0.369098
5.250000 118.988971 119.670932 -0.000000 0.203507 0.155671 -0.139841 -194.043059 1.334561 -0.000000 0.426342 0.447499 -0.368947
5.255000 89.982031 65.169390 -0.000000 0.197274 0.160905 -0.139941 -195.761629 8.779385 -0.000000 0.433158 0.441766 -0.368831
5.260000 64.320007 18.126677 -0.000000 0.191019 0.166603 -0.140469 -197.194495 19.226048 -0.000000 0.439333 0.435527 -0.368838
5.265000 42.551176 -21.592512 -0.000000 0.185916 0.172830 -0.139306 -199.071161 33.456062 -0.000000 0.444825 0.428681 -0.368866
5.270000 25.008903 -54.675486 -0.000000 0.180737 0.179665 -0.138708 -202.018939 53.325098 -0.000000 0.449536 0.421270 -0.369111
5.275000 11.583462 -81.770119 -0.000000 0.175837 0.187213 -0.138549 -206.585313 80.163203 -0.000000 0.453471 0.413445 -0.369374
5.280000 1.755797 -103.526177 -0.000000 0.171273 0.195393 -0.138460 -212.992397 115.570929 -0.000000 0.456676 0.404882 -0.369957
5.285000 -5.142040 -120.341613 -0.000000 0.166466 0.204045 -0.139229 -221.152596 160.897800 -0.000000 0.458969 0.395822 -0.370354
5.290000 -9.468129 -132.354852 -0.000000 0.162798 0.213313 -0.139295 -231.003796 216.787327 -0.000000 0.460475 0.386456 -0.370585
5.295000 -11.540652 -139.518596 -0.000000 0.159592 0.222502 -0.139421 -242.098227 283.679426 -0.000000 0.461081 0.376574 -0.371121
5.300000 -11.506077 -141.787650 -0.000000 0.156958 0.232262 -0.139554 -253.819993 361.154301 -0.000000 0.461089 0.366897 -0.371432
5.305000 -9.610509 -139.331053 -0.000000 0.154837 0.242075 -0.139799 -265.059650 448.088857 -0.000000 0.460697 0.356508 -0.371492
5.310000 -5.742162 -132.707853 -0.000000 0.153419 0.252072 -0.139956 -275.957392 541.802388 -0.000000 0.459895 0.345931 -0.371613
5.315000 -0.276991 -122.819043 -0.000000 0.152551 0.262392 -0.140102 -285.628202 639.917092 -0.000000 0.458864 0.334919 -0.371756
5.320000 6.625604 -110.826960 -0.000000 0.152262 0.272880 -0.140262 -294.753223 739.373565 -0.000000 0.457694 0.323722 -0.372246
5.325000 14.499131 -97.876795 -0.000000 0.152649 0.283585 -0.140353 -303.593925 837.876757 -0.000000 0.456152 0.312397 -0.372285
5.330000 22.812612 -84.826267 -0.000000 0.153611 0.294508 -0.140358 -312.925972 933.645418 -0.000000 0.454233 0.301273 -0.372019
5.335000 30.925821 -72.127853 -0.000000 0.155287 0.305343 -0.140208 -322.827288 1025.851530 -0.000000 0.451937 0.290136 -0.372154
5.340000 38.311439 -59.868844 -0.000000 0.157491 0.316154 -0.140152 -333.132137 1114.267249 -0.000000 0.449095 0.279181 -0.371864
5.345000 44.641261 -47.917358 -0.000000 0.160424 0.326911 -0.139994 -343.231311 1199.129475 -0.000000 0.445728 0.268492 -0.371780
